<svg width="118" height="115" viewBox="0 0 118 115" fill="none" xmlns="http://www.w3.org/2000/svg">
<g filter="url(#filter0_f_19_243)">
<circle cx="59" cy="59" r="32" fill="url(#paint0_linear_19_243)" fill-opacity="0.4"/>
</g>
<g filter="url(#filter1_ddi_19_243)">
<circle cx="59" cy="59" r="29" fill="url(#paint1_linear_19_243)" shape-rendering="crispEdges"/>
<circle cx="59" cy="59" r="28" stroke="url(#paint2_linear_19_243)" stroke-width="2" shape-rendering="crispEdges"/>
</g>
<mask id="mask0_19_243" style="mask-type:alpha" maskUnits="userSpaceOnUse" x="30" y="30" width="58" height="58">
<circle cx="59" cy="59" r="28" fill="url(#paint3_linear_19_243)" stroke="url(#paint4_linear_19_243)" stroke-width="2"/>
</mask>
<g mask="url(#mask0_19_243)">
<g filter="url(#filter2_f_19_243)">
<mask id="path-5-inside-1_19_243" fill="white">
<path d="M88 59C88 75.0163 75.0163 88 59 88C42.9837 88 30 75.0163 30 59C30 42.9837 42.9837 30 59 30C75.0163 30 88 42.9837 88 59ZM32.9 59C32.9 73.4146 44.5854 85.1 59 85.1C73.4146 85.1 85.1 73.4146 85.1 59C85.1 44.5854 73.4146 32.9 59 32.9C44.5854 32.9 32.9 44.5854 32.9 59Z"/>
</mask>
<path d="M88 59C88 75.0163 75.0163 88 59 88C42.9837 88 30 75.0163 30 59C30 42.9837 42.9837 30 59 30C75.0163 30 88 42.9837 88 59ZM32.9 59C32.9 73.4146 44.5854 85.1 59 85.1C73.4146 85.1 85.1 73.4146 85.1 59C85.1 44.5854 73.4146 32.9 59 32.9C44.5854 32.9 32.9 44.5854 32.9 59Z" fill="url(#paint5_linear_19_243)"/>
<path d="M88 59C88 75.0163 75.0163 88 59 88C42.9837 88 30 75.0163 30 59C30 42.9837 42.9837 30 59 30C75.0163 30 88 42.9837 88 59ZM32.9 59C32.9 73.4146 44.5854 85.1 59 85.1C73.4146 85.1 85.1 73.4146 85.1 59C85.1 44.5854 73.4146 32.9 59 32.9C44.5854 32.9 32.9 44.5854 32.9 59Z" stroke="url(#paint6_linear_19_243)" stroke-width="4" mask="url(#path-5-inside-1_19_243)"/>
</g>
<path d="M47.2695 59.1289C47.2695 60.2773 48.1992 61.207 49.3477 61.207H56.9355V68.7949C56.9355 69.9297 57.8516 70.873 59 70.873C60.1484 70.873 61.0781 69.9297 61.0781 68.7949V61.207H68.666C69.8008 61.207 70.7305 60.2773 70.7305 59.1289C70.7305 57.9941 69.8008 57.0645 68.666 57.0645H61.0781V49.4766C61.0781 48.3418 60.1484 47.3984 59 47.3984C57.8516 47.3984 56.9355 48.3418 56.9355 49.4766V57.0645H49.3477C48.1992 57.0645 47.2695 57.9941 47.2695 59.1289Z" fill="#48319D"/>
</g>
<defs>
<filter id="filter0_f_19_243" x="26" y="26" width="66" height="66" filterUnits="userSpaceOnUse" color-interpolation-filters="sRGB">
<feFlood flood-opacity="0" result="BackgroundImageFix"/>
<feBlend mode="normal" in="SourceGraphic" in2="BackgroundImageFix" result="shape"/>
<feGaussianBlur stdDeviation="0.5" result="effect1_foregroundBlur_19_243"/>
</filter>
<filter id="filter1_ddi_19_243" x="0" y="0" width="118" height="118" filterUnits="userSpaceOnUse" color-interpolation-filters="sRGB">
<feFlood flood-opacity="0" result="BackgroundImageFix"/>
<feColorMatrix in="SourceAlpha" type="matrix" values="0 0 0 0 0 0 0 0 0 0 0 0 0 0 0 0 0 0 127 0" result="hardAlpha"/>
<feOffset dx="10" dy="10"/>
<feGaussianBlur stdDeviation="10"/>
<feComposite in2="hardAlpha" operator="out"/>
<feColorMatrix type="matrix" values="0 0 0 0 0.0509804 0 0 0 0 0.0666667 0 0 0 0 0.266667 0 0 0 0.5 0"/>
<feBlend mode="normal" in2="BackgroundImageFix" result="effect1_dropShadow_19_243"/>
<feColorMatrix in="SourceAlpha" type="matrix" values="0 0 0 0 0 0 0 0 0 0 0 0 0 0 0 0 0 0 127 0" result="hardAlpha"/>
<feOffset dx="-10" dy="-10"/>
<feGaussianBlur stdDeviation="10"/>
<feComposite in2="hardAlpha" operator="out"/>
<feColorMatrix type="matrix" values="0 0 0 0 1 0 0 0 0 1 0 0 0 0 1 0 0 0 0.5 0"/>
<feBlend mode="overlay" in2="effect1_dropShadow_19_243" result="effect2_dropShadow_19_243"/>
<feBlend mode="normal" in="SourceGraphic" in2="effect2_dropShadow_19_243" result="shape"/>
<feColorMatrix in="SourceAlpha" type="matrix" values="0 0 0 0 0 0 0 0 0 0 0 0 0 0 0 0 0 0 127 0" result="hardAlpha"/>
<feOffset dx="1" dy="1"/>
<feGaussianBlur stdDeviation="0.75"/>
<feComposite in2="hardAlpha" operator="arithmetic" k2="-1" k3="1"/>
<feColorMatrix type="matrix" values="0 0 0 0 1 0 0 0 0 1 0 0 0 0 1 0 0 0 1 0"/>
<feBlend mode="normal" in2="shape" result="effect3_innerShadow_19_243"/>
</filter>
<filter id="filter2_f_19_243" x="28" y="28" width="62" height="62" filterUnits="userSpaceOnUse" color-interpolation-filters="sRGB">
<feFlood flood-opacity="0" result="BackgroundImageFix"/>
<feBlend mode="normal" in="SourceGraphic" in2="BackgroundImageFix" result="shape"/>
<feGaussianBlur stdDeviation="1" result="effect1_foregroundBlur_19_243"/>
</filter>
<linearGradient id="paint0_linear_19_243" x1="34.5" y1="38.5" x2="79" y2="81" gradientUnits="userSpaceOnUse">
<stop/>
<stop offset="1" stop-color="white" stop-opacity="0.7"/>
</linearGradient>
<linearGradient id="paint1_linear_19_243" x1="36.7969" y1="40.4219" x2="77.125" y2="78.9375" gradientUnits="userSpaceOnUse">
<stop stop-color="#F5F5F9"/>
<stop offset="1" stop-color="#DADFE7" stop-opacity="0.7"/>
</linearGradient>
<linearGradient id="paint2_linear_19_243" x1="59" y1="30" x2="59" y2="88" gradientUnits="userSpaceOnUse">
<stop stop-color="white"/>
<stop offset="1" stop-color="#AEAEAE" stop-opacity="0"/>
</linearGradient>
<linearGradient id="paint3_linear_19_243" x1="36.7969" y1="40.4219" x2="77.125" y2="78.9375" gradientUnits="userSpaceOnUse">
<stop stop-color="#F5F5F9"/>
<stop offset="1" stop-color="#DADFE7" stop-opacity="0.7"/>
</linearGradient>
<linearGradient id="paint4_linear_19_243" x1="59" y1="30" x2="59" y2="88" gradientUnits="userSpaceOnUse">
<stop stop-color="white"/>
<stop offset="1" stop-color="#AEAEAE" stop-opacity="0"/>
</linearGradient>
<linearGradient id="paint5_linear_19_243" x1="36.7969" y1="40.4219" x2="77.125" y2="78.9375" gradientUnits="userSpaceOnUse">
<stop stop-color="white" stop-opacity="0"/>
<stop offset="1" stop-color="#BBBFC7"/>
</linearGradient>
<linearGradient id="paint6_linear_19_243" x1="59" y1="30" x2="59" y2="88" gradientUnits="userSpaceOnUse">
<stop stop-color="white"/>
<stop offset="1" stop-color="#AEAEAE" stop-opacity="0"/>
</linearGradient>
</defs>
</svg>
