<svg width="266" height="115" viewBox="0 0 266 115" fill="none" xmlns="http://www.w3.org/2000/svg">
<g filter="url(#filter0_d_19_243)">
<path d="M112 15H154C216 15 194 115 262 115H4C72 115 50 15 112 15Z" fill="url(#paint0_linear_19_243)" shape-rendering="crispEdges"/>
<path d="M4 115V115.25H262V115V114.75C245.074 114.75 233.765 108.532 225.342 99.2074C216.905 89.8681 211.357 77.4073 205.98 64.9012C205.73 64.3199 205.48 63.7385 205.231 63.1573C200.12 51.2523 195.048 39.4366 187.662 30.4661C179.901 21.0401 169.583 14.75 154 14.75H112C96.417 14.75 86.099 21.0401 78.3382 30.4661C70.9525 39.4366 65.8801 51.2523 60.7694 63.1572C60.5199 63.7384 60.2703 64.3199 60.0203 64.9012C54.6427 77.4073 49.0947 89.8681 40.6582 99.2074C32.235 108.532 20.9265 114.75 4 114.75V115Z" stroke="#7582F4" stroke-opacity="0.5" stroke-width="0.5" shape-rendering="crispEdges"/>
</g>
<g filter="url(#filter1_f_19_243)">
<circle cx="133" cy="59" r="32" fill="url(#paint1_linear_19_243)" fill-opacity="0.4"/>
</g>
<g filter="url(#filter2_ddi_19_243)">
<circle cx="133" cy="59" r="29" fill="url(#paint2_linear_19_243)" shape-rendering="crispEdges"/>
<circle cx="133" cy="59" r="28" stroke="url(#paint3_linear_19_243)" stroke-width="2" shape-rendering="crispEdges"/>
</g>
<mask id="mask0_19_243" style="mask-type:alpha" maskUnits="userSpaceOnUse" x="104" y="30" width="58" height="58">
<circle cx="133" cy="59" r="28" fill="url(#paint4_linear_19_243)" stroke="url(#paint5_linear_19_243)" stroke-width="2"/>
</mask>
<g mask="url(#mask0_19_243)">
<g filter="url(#filter3_f_19_243)">
<mask id="path-7-inside-1_19_243" fill="white">
<path d="M162 59C162 75.0163 149.016 88 133 88C116.984 88 104 75.0163 104 59C104 42.9837 116.984 30 133 30C149.016 30 162 42.9837 162 59ZM106.9 59C106.9 73.4146 118.585 85.1 133 85.1C147.415 85.1 159.1 73.4146 159.1 59C159.1 44.5854 147.415 32.9 133 32.9C118.585 32.9 106.9 44.5854 106.9 59Z"/>
</mask>
<path d="M162 59C162 75.0163 149.016 88 133 88C116.984 88 104 75.0163 104 59C104 42.9837 116.984 30 133 30C149.016 30 162 42.9837 162 59ZM106.9 59C106.9 73.4146 118.585 85.1 133 85.1C147.415 85.1 159.1 73.4146 159.1 59C159.1 44.5854 147.415 32.9 133 32.9C118.585 32.9 106.9 44.5854 106.9 59Z" fill="url(#paint6_linear_19_243)"/>
<path d="M162 59C162 75.0163 149.016 88 133 88C116.984 88 104 75.0163 104 59C104 42.9837 116.984 30 133 30C149.016 30 162 42.9837 162 59ZM106.9 59C106.9 73.4146 118.585 85.1 133 85.1C147.415 85.1 159.1 73.4146 159.1 59C159.1 44.5854 147.415 32.9 133 32.9C118.585 32.9 106.9 44.5854 106.9 59Z" stroke="url(#paint7_linear_19_243)" stroke-width="4" mask="url(#path-7-inside-1_19_243)"/>
</g>
<path d="M121.27 59.1289C121.27 60.2773 122.199 61.207 123.348 61.207H130.936V68.7949C130.936 69.9297 131.852 70.873 133 70.873C134.148 70.873 135.078 69.9297 135.078 68.7949V61.207H142.666C143.801 61.207 144.73 60.2773 144.73 59.1289C144.73 57.9941 143.801 57.0645 142.666 57.0645H135.078V49.4766C135.078 48.3418 134.148 47.3984 133 47.3984C131.852 47.3984 130.936 48.3418 130.936 49.4766V57.0645H123.348C122.199 57.0645 121.27 57.9941 121.27 59.1289Z" fill="#48319D"/>
</g>
<defs>
<filter id="filter0_d_19_243" x="0" y="14.5" width="266" height="109" filterUnits="userSpaceOnUse" color-interpolation-filters="sRGB">
<feFlood flood-opacity="0" result="BackgroundImageFix"/>
<feColorMatrix in="SourceAlpha" type="matrix" values="0 0 0 0 0 0 0 0 0 0 0 0 0 0 0 0 0 0 127 0" result="hardAlpha"/>
<feOffset dy="4"/>
<feGaussianBlur stdDeviation="2"/>
<feComposite in2="hardAlpha" operator="out"/>
<feColorMatrix type="matrix" values="0 0 0 0 0.458824 0 0 0 0 0.509804 0 0 0 0 0.956863 0 0 0 1 0"/>
<feBlend mode="normal" in2="BackgroundImageFix" result="effect1_dropShadow_19_243"/>
<feBlend mode="normal" in="SourceGraphic" in2="effect1_dropShadow_19_243" result="shape"/>
</filter>
<filter id="filter1_f_19_243" x="100" y="26" width="66" height="66" filterUnits="userSpaceOnUse" color-interpolation-filters="sRGB">
<feFlood flood-opacity="0" result="BackgroundImageFix"/>
<feBlend mode="normal" in="SourceGraphic" in2="BackgroundImageFix" result="shape"/>
<feGaussianBlur stdDeviation="0.5" result="effect1_foregroundBlur_19_243"/>
</filter>
<filter id="filter2_ddi_19_243" x="74" y="0" width="118" height="118" filterUnits="userSpaceOnUse" color-interpolation-filters="sRGB">
<feFlood flood-opacity="0" result="BackgroundImageFix"/>
<feColorMatrix in="SourceAlpha" type="matrix" values="0 0 0 0 0 0 0 0 0 0 0 0 0 0 0 0 0 0 127 0" result="hardAlpha"/>
<feOffset dx="10" dy="10"/>
<feGaussianBlur stdDeviation="10"/>
<feComposite in2="hardAlpha" operator="out"/>
<feColorMatrix type="matrix" values="0 0 0 0 0.0509804 0 0 0 0 0.0666667 0 0 0 0 0.266667 0 0 0 0.5 0"/>
<feBlend mode="normal" in2="BackgroundImageFix" result="effect1_dropShadow_19_243"/>
<feColorMatrix in="SourceAlpha" type="matrix" values="0 0 0 0 0 0 0 0 0 0 0 0 0 0 0 0 0 0 127 0" result="hardAlpha"/>
<feOffset dx="-10" dy="-10"/>
<feGaussianBlur stdDeviation="10"/>
<feComposite in2="hardAlpha" operator="out"/>
<feColorMatrix type="matrix" values="0 0 0 0 1 0 0 0 0 1 0 0 0 0 1 0 0 0 0.5 0"/>
<feBlend mode="overlay" in2="effect1_dropShadow_19_243" result="effect2_dropShadow_19_243"/>
<feBlend mode="normal" in="SourceGraphic" in2="effect2_dropShadow_19_243" result="shape"/>
<feColorMatrix in="SourceAlpha" type="matrix" values="0 0 0 0 0 0 0 0 0 0 0 0 0 0 0 0 0 0 127 0" result="hardAlpha"/>
<feOffset dx="1" dy="1"/>
<feGaussianBlur stdDeviation="0.75"/>
<feComposite in2="hardAlpha" operator="arithmetic" k2="-1" k3="1"/>
<feColorMatrix type="matrix" values="0 0 0 0 1 0 0 0 0 1 0 0 0 0 1 0 0 0 1 0"/>
<feBlend mode="normal" in2="shape" result="effect3_innerShadow_19_243"/>
</filter>
<filter id="filter3_f_19_243" x="102" y="28" width="62" height="62" filterUnits="userSpaceOnUse" color-interpolation-filters="sRGB">
<feFlood flood-opacity="0" result="BackgroundImageFix"/>
<feBlend mode="normal" in="SourceGraphic" in2="BackgroundImageFix" result="shape"/>
<feGaussianBlur stdDeviation="1" result="effect1_foregroundBlur_19_243"/>
</filter>
<linearGradient id="paint0_linear_19_243" x1="133" y1="15" x2="133" y2="115" gradientUnits="userSpaceOnUse">
<stop stop-color="#262C51"/>
<stop offset="1" stop-color="#3E3F74"/>
</linearGradient>
<linearGradient id="paint1_linear_19_243" x1="108.5" y1="38.5" x2="153" y2="81" gradientUnits="userSpaceOnUse">
<stop/>
<stop offset="1" stop-color="white" stop-opacity="0.7"/>
</linearGradient>
<linearGradient id="paint2_linear_19_243" x1="110.797" y1="40.4219" x2="151.125" y2="78.9375" gradientUnits="userSpaceOnUse">
<stop stop-color="#F5F5F9"/>
<stop offset="1" stop-color="#DADFE7" stop-opacity="0.7"/>
</linearGradient>
<linearGradient id="paint3_linear_19_243" x1="133" y1="30" x2="133" y2="88" gradientUnits="userSpaceOnUse">
<stop stop-color="white"/>
<stop offset="1" stop-color="#AEAEAE" stop-opacity="0"/>
</linearGradient>
<linearGradient id="paint4_linear_19_243" x1="110.797" y1="40.4219" x2="151.125" y2="78.9375" gradientUnits="userSpaceOnUse">
<stop stop-color="#F5F5F9"/>
<stop offset="1" stop-color="#DADFE7" stop-opacity="0.7"/>
</linearGradient>
<linearGradient id="paint5_linear_19_243" x1="133" y1="30" x2="133" y2="88" gradientUnits="userSpaceOnUse">
<stop stop-color="white"/>
<stop offset="1" stop-color="#AEAEAE" stop-opacity="0"/>
</linearGradient>
<linearGradient id="paint6_linear_19_243" x1="110.797" y1="40.4219" x2="151.125" y2="78.9375" gradientUnits="userSpaceOnUse">
<stop stop-color="white" stop-opacity="0"/>
<stop offset="1" stop-color="#BBBFC7"/>
</linearGradient>
<linearGradient id="paint7_linear_19_243" x1="133" y1="30" x2="133" y2="88" gradientUnits="userSpaceOnUse">
<stop stop-color="white"/>
<stop offset="1" stop-color="#AEAEAE" stop-opacity="0"/>
</linearGradient>
</defs>
</svg>
